<svg width="30" height="30" viewBox="0 0 30 30" fill="none" xmlns="http://www.w3.org/2000/svg">
<path fill-rule="evenodd" clip-rule="evenodd" d="M0.444101 11.397C2.43358 3.35474 10.5655 -1.54719 18.6046 0.443057C26.6461 2.43178 31.5488 10.5622 29.5593 18.6029C27.5698 26.6429 19.4395 31.5478 11.3988 29.5568C3.35881 27.5681 -1.5469 19.4377 0.444101 11.397Z" fill="#F2F1F0"/>
<path fill-rule="evenodd" clip-rule="evenodd" d="M11.3988 29.5573C12.2861 29.7768 13.1749 29.912 14.056 29.969H15.965C18.5029 29.8064 20.9269 28.9982 23.0243 27.6704H6.97246C8.30182 28.5128 9.7869 29.1585 11.3988 29.5573ZM1.16352 20.782H28.8415C29.1317 20.0855 29.3725 19.3578 29.5594 18.6027C29.5692 18.5632 29.5776 18.5237 29.5867 18.4842H0.412247C0.601395 19.2719 0.852834 20.0399 1.16352 20.782ZM29.9612 13.8891H17.2541V16.1877H29.9529C30.0152 15.4144 30.0167 14.6464 29.9612 13.8891ZM18.6047 0.442604C18.155 0.33093 17.7046 0.242047 17.2541 0.173676V2.40639H23.1511C21.7914 1.52667 20.2653 0.852833 18.6047 0.442604ZM4.17014 25.3747H25.8356C26.5056 24.6751 27.1126 23.9071 27.642 23.0783H2.36677C2.89015 23.898 3.49406 24.6675 4.17014 25.3747ZM25.9071 4.70292H17.2541V7.0008H27.6877C27.1703 6.18116 26.5748 5.41089 25.9071 4.70292ZM28.8727 9.29704H17.2541V11.5934H29.6103C29.4265 10.8057 29.1781 10.0384 28.8727 9.29704Z" fill="#DB372D"/>
<path fill-rule="evenodd" clip-rule="evenodd" d="M17.2541 0.173343C17.1067 0.150554 16.0136 0.03053 15.867 0.0122986L13.171 0.111812C10.3763 0.45593 7.75561 1.58324 5.59673 3.31827L5.65218 3.48843L5.51165 3.38587C5.01561 3.79076 4.5454 4.22832 4.10253 4.6955H4.32359L3.99998 4.93175L4.1238 5.31233L3.79868 5.07836L3.66954 5.17179C3.36721 5.51971 3.08007 5.88358 2.80964 6.26112H2.85446L2.76026 6.32949C2.69493 6.42217 2.6296 6.5156 2.56656 6.6098L2.65315 6.87795L2.47464 6.74881C1.56232 8.1344 0.864977 9.69471 0.444141 11.3971C0.438823 11.4191 0.433506 11.4411 0.428188 11.4639H0.677348L0.800409 11.0811L0.925748 11.4639H1.32456L1.00095 11.6979L1.12477 12.08L0.800409 11.8445L0.476045 12.08L0.599865 11.6979L0.406159 11.5581C0.037737 13.1215 -0.0724098 14.6863 0.0498912 16.2071H17.2541V0.173343ZM1.12481 15.3457L0.80045 15.1095L0.476087 15.3457L0.599907 14.9651L0.276304 14.7289H0.67739L0.80045 14.3482L0.925789 14.7289H1.3246L1.00099 14.9651L1.12481 15.3457ZM2.59391 13.6069L2.2703 13.3707L1.94442 13.6069L2.069 13.2263L1.7454 12.9901H2.14572L2.2703 12.6095L2.39261 12.9901H2.79445L2.46933 13.2263L2.59391 13.6069ZM2.49899 9.88227L2.62357 10.2628L2.29921 10.0266L1.97485 10.2628L2.09867 9.88227L1.7743 9.64604H2.17539L2.29921 9.26549L2.42379 9.64604H2.82336L2.49899 9.88227ZM4.12383 15.3457L3.79871 15.1095L3.47587 15.3457L3.59893 14.9651L3.27381 14.7289H3.67413L3.79871 14.3482L3.92253 14.7289H4.32362L4.00001 14.9651L4.12383 15.3457ZM3.99997 11.6979L4.12379 12.08L3.79867 11.8445L3.47583 12.08L3.59889 11.6979L3.27453 11.464H3.67409L3.79867 11.0811L3.92249 11.464H4.32358L3.99997 11.6979ZM3.99997 8.27729L4.12379 8.65789L3.79867 8.42163L3.47583 8.65789L3.59889 8.27729L3.27453 8.04103H3.67409L3.79867 7.66044L3.92249 8.04103H4.32358L3.99997 8.27729ZM15.6687 1.35162L15.7933 0.971074L15.9164 1.35162H16.3175L15.9939 1.58785L16.1177 1.9684L15.7933 1.73217L15.469 1.9684L15.5928 1.58785L15.2692 1.35162H15.6687ZM15.6687 4.69541L15.7933 4.31484L15.9164 4.69541H16.3175L15.9939 4.93165L16.1177 5.31223L15.7933 5.07826L15.469 5.31223L15.5928 4.93165L15.2692 4.69541H15.6687ZM15.6687 8.04103L15.7933 7.66044L15.9164 8.04103H16.3175L15.9939 8.27729L16.1177 8.65789L15.7933 8.42163L15.469 8.65789L15.5928 8.27729L15.2692 8.04103H15.6687ZM15.6687 11.464L15.7933 11.0811L15.9164 11.464H16.3175L15.9939 11.6979L16.1177 12.08L15.7933 11.8445L15.469 12.08L15.5928 11.6979L15.2692 11.464H15.6687ZM12.6705 1.35162L12.7958 0.971074L12.9181 1.35162H13.3184L12.9941 1.58785L13.1194 1.9684L12.7958 1.73217L12.4699 1.9684L12.5945 1.58785L12.2709 1.35162H12.6705ZM5.59219 13.6661L5.26859 13.4299L4.94499 13.6661L5.06805 13.2855L4.74368 13.0493H5.14477L5.26859 12.6686L5.39317 13.0493H5.7935L5.46837 13.2855L5.59219 13.6661ZM5.49948 9.94142L5.62254 10.322L5.29894 10.0857L4.97457 10.322L5.09763 9.94142L4.77403 9.70518H5.17436L5.29894 9.32461L5.42124 9.70518H5.82308L5.49948 9.94142ZM5.52916 6.55796L5.65223 6.93931L5.32862 6.70305L5.0035 6.93931L5.12884 6.55796L4.80372 6.32246H5.2048L5.32862 5.94186L5.45168 6.32246H5.85353L5.52916 6.55796ZM7.12283 15.3457L6.79922 15.1095L6.47334 15.3457L6.59792 14.9651L6.27432 14.7289H6.67388L6.79922 14.3482L6.92152 14.7289H7.32185L6.99825 14.9651L7.12283 15.3457ZM6.99825 11.6979L7.12283 12.08L6.79922 11.8445L6.47334 12.08L6.59792 11.6979L6.27432 11.464H6.67388L6.79922 11.0811L6.92152 11.464H7.32185L6.99825 11.6979ZM6.99825 8.27729L7.12283 8.65789L6.79922 8.42163L6.47334 8.65789L6.59792 8.27729L6.27432 8.04103H6.67388L6.79922 7.66044L6.92152 8.04103H7.32185L6.99825 8.27729ZM6.99825 4.93165L7.12283 5.31223L6.79922 5.07826L6.47334 5.31223L6.59792 4.93165L6.27432 4.69541H6.67388L6.79922 4.31484L6.92152 4.69541H7.32185L6.99825 4.93165ZM8.59124 13.7009L8.26688 13.4646L7.94327 13.7009L8.06633 13.318L7.74197 13.084H8.1423L8.26688 12.7034L8.38994 13.084H8.79179L8.46742 13.318L8.59124 13.7009ZM8.49625 9.97412L8.62083 10.3547L8.29722 10.1184L7.97134 10.3547L8.09592 9.97412L7.77231 9.73787H8.17264L8.29722 9.3573L8.41952 9.73787H8.82061L8.49625 9.97412ZM8.52663 6.59167L8.65121 6.97227L8.32608 6.73829L8.00172 6.97227L8.1263 6.59167L7.80194 6.35542H8.20226L8.32608 5.97482L8.45066 6.35542H8.85023L8.52663 6.59167ZM8.52663 3.13834L8.65121 3.52119L8.32608 3.28495L8.00172 3.52119L8.1263 3.13834L7.80194 2.90438H8.20226L8.32608 2.52381L8.45066 2.90438H8.85023L8.52663 3.13834ZM10.1203 15.3457L9.79596 15.1095L9.4716 15.3457L9.59542 14.9651L9.27182 14.7289H9.6729L9.79596 14.3482L9.91978 14.7289H10.3209L9.99651 14.9651L10.1203 15.3457ZM9.99651 11.6979L10.1203 12.08L9.79596 11.8445L9.4716 12.08L9.59542 11.6979L9.27182 11.464H9.6729L9.79596 11.0811L9.91978 11.464H10.3209L9.99651 11.6979ZM9.99651 8.27729L10.1203 8.65789L9.79596 8.42163L9.4716 8.65789L9.59542 8.27729L9.27182 8.04103H9.6729L9.79596 7.66044L9.91978 8.04103H10.3209L9.99651 8.27729ZM9.99651 4.93165L10.1203 5.31223L9.79596 5.07826L9.4716 5.31223L9.59542 4.93165L9.27182 4.69541H9.6729L9.79596 4.31484L9.91978 4.69541H10.3209L9.99651 4.93165ZM9.99651 1.58785L10.1203 1.9684L9.79596 1.73217L9.4716 1.9684L9.59542 1.58785L9.27182 1.35162H9.6729L9.79596 0.971074L9.91978 1.35162H10.3209L9.99651 1.58785ZM11.5895 13.8188L11.2659 13.5826L10.9415 13.8188L11.0646 13.4382L10.741 13.202H11.1413L11.2659 12.8214L11.3897 13.202H11.79L11.4664 13.4382L11.5895 13.8188ZM11.4968 10.0942L11.6199 10.4755L11.2955 10.2393L10.9719 10.4755L11.0957 10.0942L10.7706 9.85872H11.1709L11.2955 9.47815L11.4186 9.85872H11.8204L11.4968 10.0942ZM11.5249 6.71144L11.6495 7.09201L11.3252 6.85577L11 7.09201L11.1246 6.71144L10.801 6.4752H11.2013L11.3252 6.09463L11.449 6.4752H11.8501L11.5249 6.71144ZM11.5249 3.2584L11.6495 3.64127L11.3252 3.40501L11 3.64127L11.1246 3.2584L10.801 3.02442H11.2013L11.3252 2.6423L11.449 3.02442H11.8501L11.5249 3.2584ZM13.1194 15.3457L12.7958 15.1095L12.4699 15.3457L12.5945 14.9651L12.2709 14.7289H12.6705L12.7958 14.3482L12.9181 14.7289H13.3184L12.9941 14.9651L13.1194 15.3457ZM12.9941 11.6979L13.1194 12.08L12.7958 11.8445L12.4699 12.08L12.5945 11.6979L12.2709 11.464H12.6705L12.7958 11.0811L12.9181 11.464H13.3184L12.9941 11.6979ZM12.9941 8.27729L13.1194 8.65789L12.7958 8.42163L12.4699 8.65789L12.5945 8.27729L12.2709 8.04103H12.6705L12.7958 7.66044L12.9181 8.04103H13.3184L12.9941 8.27729ZM12.9941 4.93165L13.1194 5.31223L12.7958 5.07826L12.4699 5.31223L12.5945 4.93165L12.2709 4.69541H12.6705L12.7958 4.31484L12.9181 4.69541H13.3184L12.9941 4.93165ZM14.5885 13.8188L14.2642 13.5826L13.9406 13.8188L14.0636 13.4382L13.7393 13.202H14.1404L14.2642 12.8214L14.3872 13.202H14.7891L14.464 13.4382L14.5885 13.8188ZM14.4943 10.0942L14.6182 10.4755L14.2938 10.2393L13.9702 10.4755L14.0933 10.0942L13.7689 9.85872H14.17L14.2938 9.47815L14.4169 9.85872H14.8179L14.4943 10.0942ZM14.5239 6.71144L14.6477 7.09201L14.3241 6.85577L13.9998 7.09201L14.1236 6.71144L13.7992 6.4752H14.1996L14.3241 6.09463L14.448 6.4752H14.849L14.5239 6.71144ZM14.5239 3.2584L14.6477 3.64127L14.3241 3.40501L13.9998 3.64127L14.1236 3.2584L13.7992 3.02442H14.1996L14.3241 2.6423L14.448 3.02442H14.849L14.5239 3.2584ZM16.1177 15.3457L15.7933 15.1095L15.469 15.3457L15.5928 14.9651L15.2692 14.7289H15.6687L15.7933 14.3482L15.9164 14.7289H16.3175L15.9939 14.9651L16.1177 15.3457Z" fill="#27355E"/>
</svg>
