<svg width="30" height="30" viewBox="0 0 30 30" fill="none" xmlns="http://www.w3.org/2000/svg">
<mask id="mask0_16400_4627" style="mask-type:luminance" maskUnits="userSpaceOnUse" x="0" y="0" width="31" height="30">
<path fill-rule="evenodd" clip-rule="evenodd" d="M15.0598 3.05176e-05C23.3188 0.0298698 30.005 6.73418 30.005 15C30.005 23.2842 23.2889 30 15.0045 30C6.71982 30 0.00390625 23.2842 0.00390625 15C0.00390625 6.73418 6.68992 0.0298698 14.9491 3.05176e-05L15.0598 3.05232e-05L15.0598 3.05176e-05Z" fill="white"/>
</mask>
<g mask="url(#mask0_16400_4627)">
<path fill-rule="evenodd" clip-rule="evenodd" d="M-9.99625 30H50.0057V6.10352e-05H-9.99625V30Z" fill="#00008B"/>
<mask id="mask1_16400_4627" style="mask-type:luminance" maskUnits="userSpaceOnUse" x="0" y="0" width="21" height="15">
<path fill-rule="evenodd" clip-rule="evenodd" d="M0.00390625 15C0.00392775 6.73118 6.69482 0.025008 14.9582 3.05176e-05L15.0508 3.05176e-05C16.7872 0.00528075 18.4545 0.305728 20.0044 0.85346V15H0.00390625L0.00390625 15Z" fill="white"/>
</mask>
<g mask="url(#mask1_16400_4627)">
<path fill-rule="evenodd" clip-rule="evenodd" d="M20.0046 6.10352e-05L-9.99637 15.0001L20.0046 6.10352e-05ZM-9.99637 6.10352e-05L20.0046 15.0001L-9.99637 6.10352e-05Z" fill="black"/>
<path d="M19.4869 -1.03528L20.5223 -1.55297L20.0046 -2.58838L18.9692 -2.07069L19.4869 -1.03528ZM-10.5141 13.9647L-11.0318 12.9293L-12.0672 13.447L-11.5495 14.4824L-10.5141 13.9647ZM20.5222 1.03555L21.0399 2.07096L22.0753 1.55327L21.5577 0.517858L20.5222 1.03555ZM-9.47872 16.0355L-10.5141 16.5532L-9.99644 17.5886L-8.96103 17.071L-9.47872 16.0355ZM-10.5141 1.03555L-11.5495 0.517858L-12.0672 1.55327L-11.0318 2.07096L-10.5141 1.03555ZM19.4869 16.0355L18.9692 17.071L20.0046 17.5886L20.5223 16.5532L19.4869 16.0355ZM-9.47872 -1.03528L-8.96103 -2.07069L-9.99644 -2.58838L-10.5141 -1.55297L-9.47872 -1.03528ZM20.5222 13.9647L21.5577 14.4824L22.0753 13.447L21.0399 12.9293L20.5222 13.9647ZM18.9692 -2.07069L-11.0318 12.9293L-9.99641 15.0001L20.0046 0.000134587L18.9692 -2.07069ZM21.5577 0.517858L20.5223 -1.55297L18.4515 -0.517589L19.4868 1.55324L21.5577 0.517858ZM-8.96103 17.071L21.0399 2.07096L20.0046 0.000134587L-9.99641 15.0001L-8.96103 17.071ZM-11.5495 14.4824L-10.5141 16.5532L-8.44331 15.5179L-9.47869 13.447L-11.5495 14.4824ZM-11.0318 2.07096L18.9692 17.071L20.0046 15.0001L-9.99641 0.000134587L-11.0318 2.07096ZM-10.5141 -1.55297L-11.5495 0.517858L-9.47869 1.55324L-8.44331 -0.517589L-10.5141 -1.55297ZM21.0399 12.9293L-8.96103 -2.07069L-9.99641 0.000134587L20.0046 15.0001L21.0399 12.9293ZM20.5223 16.5532L21.5577 14.4824L19.4868 13.447L18.4515 15.5179L20.5223 16.5532Z" fill="white"/>
</g>
<mask id="mask2_16400_4627" style="mask-type:luminance" maskUnits="userSpaceOnUse" x="0" y="0" width="21" height="15">
<path fill-rule="evenodd" clip-rule="evenodd" d="M15.0508 3.05176e-05C16.4011 0.00411356 17.7098 0.186731 18.9538 0.525363L5.00406 7.50009H5.00416H5.00406H5.00396H2.01067C2.23607 7.11059 2.47808 6.73259 2.73639 6.36619L5.00406 7.50009V3.81948C7.64728 1.45382 11.1344 0.0115888 14.9582 3.05176e-05L15.0508 3.05176e-05V3.05176e-05ZM20.0044 15.0001L5.00416 7.50016H20.0045V15.0001H20.0044ZM5.00406 15.0001V7.50016H5.00396L1.05434 9.47495C0.376422 11.1848 0.00391018 13.0488 0.00390625 15.0001L5.00406 15.0001Z" fill="white"/>
</mask>
<g mask="url(#mask2_16400_4627)">
<path fill-rule="evenodd" clip-rule="evenodd" d="M20.0046 6.10352e-05L-9.99628 15.0001L20.0046 6.10352e-05ZM-9.99628 6.10352e-05L20.0046 15.0001L-9.99628 6.10352e-05Z" fill="black"/>
<path d="M19.7285 -0.552185L20.2807 -0.828289L20.0046 -1.38051L19.4524 -1.10441L19.7285 -0.552185ZM-10.2724 14.4478L-10.5485 13.8956L-11.1007 14.1717L-10.8246 14.7239L-10.2724 14.4478ZM20.2807 0.552263L20.5568 1.10449L21.109 0.828382L20.8329 0.276159L20.2807 0.552263ZM-9.72019 15.5523L-10.2724 15.8284L-9.99631 16.3806L-9.44409 16.1045L-9.72019 15.5523ZM-10.2724 0.552263L-10.8246 0.276159L-11.1007 0.828382L-10.5485 1.10449L-10.2724 0.552263ZM19.7285 15.5523L19.4524 16.1045L20.0046 16.3806L20.2807 15.8284L19.7285 15.5523ZM-9.72019 -0.552185L-9.44409 -1.10441L-9.99631 -1.38051L-10.2724 -0.828289L-9.72019 -0.552185ZM20.2807 14.4478L20.8329 14.7239L21.109 14.1717L20.5568 13.8956L20.2807 14.4478ZM19.4524 -1.10441L-10.5485 13.8956L-9.9963 15L20.0046 3.8743e-05L19.4524 -1.10441ZM20.8329 0.276159L20.2807 -0.828289L19.1762 -0.276081L19.7285 0.828367L20.8329 0.276159ZM-9.44409 16.1045L20.5568 1.10449L20.0046 3.8743e-05L-9.9963 15L-9.44409 16.1045ZM-10.8246 14.7239L-10.2724 15.8284L-9.16797 15.2762L-9.72018 14.1717L-10.8246 14.7239ZM-10.5485 1.10449L19.4524 16.1045L20.0046 15L-9.9963 3.8743e-05L-10.5485 1.10449ZM-10.2724 -0.828289L-10.8246 0.276159L-9.72018 0.828367L-9.16797 -0.276081L-10.2724 -0.828289ZM20.5568 13.8956L-9.44409 -1.10441L-9.9963 3.8743e-05L20.0046 15L20.5568 13.8956ZM20.2807 15.8284L20.8329 14.7239L19.7285 14.1717L19.1762 15.2762L20.2807 15.8284Z" fill="#FF0000"/>
</g>
<mask id="mask3_16400_4627" style="mask-type:luminance" maskUnits="userSpaceOnUse" x="0" y="0" width="26" height="18">
<path fill-rule="evenodd" clip-rule="evenodd" d="M14.9582 3.05176e-05C6.6948 0.0250081 0.00390625 6.73121 0.00390625 15.0001C0.00390625 15.8519 0.0749103 16.6871 0.211323 17.5001H25.0047V3.81936C22.3615 1.45375 18.8745 0.0115885 15.0508 3.05176e-05L14.9582 3.05176e-05V3.05176e-05Z" fill="white"/>
</mask>
<g mask="url(#mask3_16400_4627)">
<path fill-rule="evenodd" clip-rule="evenodd" d="M-9.99631 7.50019H25.0047H-9.99631ZM5.00408 6.10352e-05V17.5002V6.10352e-05Z" fill="black"/>
<path d="M-9.99631 9.04369H-11.5398V10.5872H-9.99631V9.04369ZM25.0047 9.04369V10.5872H26.5482V9.04369H25.0047ZM-9.99631 5.95669V4.41318H-11.5398V5.95669H-9.99631ZM25.0047 5.95669H26.5482V4.41318H25.0047V5.95669ZM3.46057 6.10352e-05V-1.54344H1.91707V6.10352e-05H3.46057ZM3.46057 17.5002H1.91707V19.0437H3.46057V17.5002ZM6.54758 6.10352e-05H8.09108V-1.54344H6.54758V6.10352e-05ZM6.54758 17.5002V19.0437H8.09108V17.5002H6.54758ZM-9.99631 10.5872H25.0047V7.50019H-9.99631V10.5872ZM-11.5398 5.95669V9.04369H-8.4528V5.95669H-11.5398ZM25.0047 4.41318H-9.99631V7.50019H25.0047V4.41318ZM26.5482 9.04369V5.95669H23.4612V9.04369H26.5482ZM1.91707 6.10352e-05V17.5002H5.00408V6.10352e-05H1.91707ZM6.54758 -1.54344H3.46057V1.54356H6.54758V-1.54344ZM8.09108 17.5002V6.10352e-05H5.00408V17.5002H8.09108ZM3.46057 19.0437H6.54758V15.9567H3.46057V19.0437Z" fill="white"/>
</g>
<mask id="mask4_16400_4627" style="mask-type:luminance" maskUnits="userSpaceOnUse" x="0" y="0" width="22" height="17">
<path fill-rule="evenodd" clip-rule="evenodd" d="M14.9582 3.05176e-05C6.6948 0.0250079 0.00390625 6.73117 0.00390625 15C0.00390625 15.3545 0.0162088 15.7062 0.0404102 16.0546H21.0593V1.27212C19.2208 0.460059 17.1884 0.00649191 15.0508 3.05176e-05L14.9582 3.05176e-05V3.05176e-05Z" fill="white"/>
</mask>
<g mask="url(#mask4_16400_4627)">
<path fill-rule="evenodd" clip-rule="evenodd" d="M-9.99631 7.50019H21.0594H-9.99631ZM5.00408 6.10352e-05V16.0547V6.10352e-05Z" fill="black"/>
<path d="M-9.99631 8.42629H-10.9224V9.35239H-9.99631V8.42629ZM21.0594 8.42629V9.35239H21.9855V8.42629H21.0594ZM-9.99631 6.57409V5.64798H-10.9224V6.57409H-9.99631ZM21.0594 6.57409H21.9855V5.64798H21.0594V6.57409ZM4.07797 6.10352e-05V-0.926041H3.15187V6.10352e-05H4.07797ZM4.07797 16.0547H3.15187V16.9808H4.07797V16.0547ZM5.93018 6.10352e-05H6.85628V-0.926041H5.93018V6.10352e-05ZM5.93018 16.0547V16.9808H6.85628V16.0547H5.93018ZM-9.99631 9.35239H21.0594V7.50019H-9.99631V9.35239ZM-10.9224 6.57409V8.42629H-9.07021V6.57409H-10.9224ZM21.0594 5.64798H-9.99631V7.50019H21.0594V5.64798ZM21.9855 8.42629V6.57409H20.1333V8.42629H21.9855ZM3.15187 6.10352e-05V16.0547H5.00408V6.10352e-05H3.15187ZM5.93018 -0.926041H4.07797V0.926163H5.93018V-0.926041ZM6.85628 16.0547V6.10352e-05H5.00408V16.0547H6.85628ZM4.07797 16.9808H5.93018V15.1286H4.07797V16.9808Z" fill="#FF0000"/>
</g>
<mask id="mask5_16400_4627" style="mask-type:luminance" maskUnits="userSpaceOnUse" x="0" y="0" width="31" height="20">
<path fill-rule="evenodd" clip-rule="evenodd" d="M0.857459 20.0001C0.304685 18.4362 0.00390625 16.7532 0.00390625 15.0001C0.00390625 6.73121 6.6948 0.0250081 14.9582 3.05176e-05L15.0508 3.05176e-05C23.3023 0.0249728 29.9861 6.71229 30.0049 14.9651V15.0351C30.001 16.7757 29.7005 18.4466 29.1514 20.0001H0.857459H0.857459Z" fill="white"/>
</mask>
<g mask="url(#mask5_16400_4627)">
<path fill-rule="evenodd" clip-rule="evenodd" d="M-9.99631 15.0001H20.0046V6.10352e-05H30.005V20.0001H-9.99631V15.0001Z" fill="#00008B"/>
</g>
<path fill-rule="evenodd" clip-rule="evenodd" d="M5.00409 18.0001L5.87192 20.6982L8.5226 19.6944L6.95405 22.0551L9.39143 23.5015L6.56784 23.7472L6.95665 26.5545L5.00409 24.5001L3.05163 26.5545L3.44044 23.7472L0.616852 23.5015L3.05423 22.0551L1.48578 19.6944L4.13636 20.6982L5.00409 18.0001Z" fill="white"/>
<path fill-rule="evenodd" clip-rule="evenodd" d="M27.5049 10.9824L27.9181 12.2671L29.1802 11.7891L28.4333 12.9132L29.5941 13.6019L28.2494 13.7189L28.4346 15.0557L27.5049 14.0775L26.5751 15.0557L26.7603 13.7189L25.4156 13.6019L26.5764 12.9132L25.8294 11.7891L27.0916 12.2671L27.5049 10.9824Z" fill="white"/>
</g>
</svg>
